<svg width="472" height="205" viewBox="0 0 472 205" fill="none" xmlns="http://www.w3.org/2000/svg">
<path d="M201.516 163.01H187.128C186.621 163.01 186.257 162.438 186.257 161.892C186.257 161.698 193.913 137.015 193.913 137.015C194.186 136.092 194.212 136.065 194.316 136.065H194.329C194.445 136.065 194.459 136.092 194.731 137.015C194.731 137.015 202.387 161.698 202.387 161.892C202.387 162.438 201.997 163.01 201.517 163.01H201.516ZM220.922 106.535C220.851 106.291 220.707 106.075 220.509 105.914C220.312 105.754 220.07 105.658 219.817 105.638H166.981C166.73 105.658 166.49 105.753 166.293 105.911C166.096 106.068 165.951 106.281 165.876 106.522C165.876 106.522 136.67 202.939 136.67 203.122C136.67 203.602 137.047 203.992 137.541 203.992H172.466C172.604 203.934 172.726 203.844 172.821 203.728C172.917 203.613 172.982 203.476 173.012 203.329L177.08 190.332C177.142 190.171 177.251 190.032 177.392 189.932C177.533 189.833 177.7 189.777 177.873 189.772L210.095 189.747C210.445 189.773 210.758 190.02 210.888 190.332L215.047 203.329C215.112 203.629 215.32 203.901 215.593 204.005L249.959 203.992C250.439 203.992 250.843 203.628 250.843 203.147C250.843 202.978 220.922 106.535 220.922 106.535V106.535ZM320.485 145.901L299.025 145.914C299.025 145.914 298.454 145.745 298.454 145.095L298.441 134.268C298.441 133.618 299.013 133.449 299.013 133.449H318.691C320.979 133.449 325.606 134.593 325.606 139.883C325.606 145.173 320.485 145.901 320.485 145.901V145.901ZM423.375 137.518H472V105.634H409.48C403.632 105.634 395.404 108.65 390.686 112.146C385.968 115.642 379.144 123.61 379.144 134.593C379.144 145.576 385.812 154.116 385.812 154.116C389.23 158.353 397.835 167.179 397.835 167.179C398.03 167.387 398.147 167.659 398.147 167.972C398.147 168.634 397.614 169.167 396.951 169.167H348.794C342.932 169.141 342.529 166.815 342.529 166.477C342.529 165.879 343.257 165.502 343.257 165.502C345.454 164.449 349.937 160.952 349.937 160.952C359.452 153.544 360.597 143.38 360.597 137.934C360.597 132.474 359.777 122.817 350.016 114.356C340.255 105.894 327.894 105.66 327.894 105.66H259.174V203.43C259.174 203.741 259.46 203.988 259.772 203.988H298.025V176.563C298.025 176.083 298.765 176.563 298.765 176.563L318.691 196.58C325.775 203.741 337.486 203.988 337.486 203.988L412.821 203.975C425.676 203.975 432.825 196.983 434.787 195.033C436.737 193.07 443.249 185.753 443.249 173.626C443.249 161.512 437.712 155.312 435.346 152.466C433.241 149.918 424.844 141.027 423.089 139.181C422.983 139.095 422.898 138.986 422.839 138.862C422.781 138.739 422.751 138.604 422.751 138.467C422.751 138.037 422.998 137.635 423.375 137.517V137.518ZM119.212 203.986C119.472 203.986 119.654 203.804 119.732 203.518C119.732 203.518 149.328 106.308 149.328 106.216C149.328 105.956 149.172 105.671 148.925 105.645H112.44C112.258 105.645 112.141 105.788 112.102 105.983C112.102 105.996 104.55 131.263 104.55 131.276C104.498 131.484 104.394 131.614 104.212 131.614C104.03 131.614 103.874 131.432 103.848 131.276L95.946 105.97C95.92 105.8 95.79 105.645 95.608 105.645L55.315 105.632C55.2564 105.648 55.2024 105.678 55.1573 105.718C55.1122 105.759 55.0771 105.809 55.055 105.866L47.971 131.263C47.932 131.484 47.815 131.614 47.62 131.614C47.5373 131.612 47.4579 131.582 47.396 131.527C47.334 131.472 47.2936 131.397 47.282 131.315L39.769 105.944C39.76 105.867 39.7259 105.794 39.6719 105.738C39.6179 105.681 39.547 105.644 39.47 105.632H0.580999C0.427869 105.634 0.281789 105.697 0.174629 105.806C0.0674695 105.916 0.00793009 106.063 0.00900078 106.216C0.00900078 106.268 0.0219994 106.372 0.0219994 106.372L30.06 203.518C30.138 203.804 30.32 203.986 30.58 203.986L62.88 203.999C63.074 203.973 63.27 203.752 63.321 203.518C63.334 203.518 74.564 167.371 74.564 167.371C74.629 167.15 74.72 167.021 74.902 167.021C75.097 167.021 75.202 167.176 75.253 167.358L86.21 203.674C86.2419 203.766 86.3017 203.845 86.381 203.901C86.4602 203.957 86.555 203.987 86.652 203.986H119.212ZM91.114 0.00399971C85.252 0.00399971 77.038 3.019 72.32 6.516C67.6 10.012 60.778 17.98 60.778 28.963C60.778 39.946 67.445 48.486 67.445 48.486C70.864 52.723 79.468 61.613 79.468 61.613C79.663 61.821 79.78 62.094 79.78 62.393C79.78 63.056 79.247 63.602 78.585 63.602H0V98.358H94.455C107.297 98.358 114.458 91.365 116.421 89.403C118.371 87.453 124.87 80.135 124.87 68.008C124.87 55.894 119.346 49.629 116.98 46.783C114.874 44.235 106.478 35.397 104.723 33.564C104.618 33.4739 104.533 33.3623 104.475 33.2367C104.417 33.1111 104.386 32.9745 104.385 32.836C104.385 32.407 104.632 32.017 105.009 31.887H150.501V98.358H185.478V32.056H227.942V0.00399971H91.114ZM396.181 40.272L374.722 40.285C374.722 40.285 374.15 40.116 374.15 39.466L374.137 28.639C374.137 27.989 374.709 27.82 374.709 27.82H394.388C396.675 27.82 401.302 28.964 401.302 34.254C401.302 39.544 396.182 40.272 396.182 40.272H396.181ZM424.491 63.538C418.641 63.512 418.226 61.186 418.226 60.848C418.226 60.25 418.953 59.873 418.953 59.873C421.15 58.82 425.634 55.323 425.634 55.323C435.149 47.915 436.293 37.751 436.293 32.305C436.293 26.845 435.473 17.188 425.713 8.727C415.951 0.264999 403.59 0.00499916 403.59 0.00499916H334.87V97.8C334.87 98.112 335.157 98.36 335.469 98.36H373.721V70.946C373.721 70.452 374.462 70.946 374.462 70.946L394.388 90.95C401.471 98.111 413.182 98.358 413.182 98.358H471.997V63.54H424.491V63.538ZM279.077 57.372H264.688C264.155 57.372 263.818 56.8 263.818 56.254C263.818 56.046 271.473 31.377 271.473 31.377C271.746 30.454 271.823 30.427 271.876 30.427H271.889C271.941 30.427 272.019 30.454 272.292 31.377C272.292 31.377 279.947 56.047 279.947 56.254C279.947 56.8 279.597 57.372 279.077 57.372V57.372ZM298.443 0.871C298.374 0.627827 298.23 0.412632 298.032 0.256191C297.833 0.0997509 297.591 0.0100786 297.338 0H244.503C243.983 0.026 243.541 0.377 243.398 0.858C243.398 0.858 214.218 97.301 214.218 97.483C214.218 97.964 214.608 98.354 215.088 98.354H250.014C250.3 98.264 250.507 97.99 250.572 97.691L254.641 84.681C254.706 84.5232 254.816 84.3878 254.957 84.2909C255.098 84.194 255.263 84.1399 255.434 84.135H287.642C287.814 84.1467 287.98 84.2048 288.122 84.3033C288.264 84.4017 288.377 84.5367 288.448 84.694L292.608 97.691C292.672 97.991 292.88 98.263 293.153 98.367L327.519 98.354C328 98.354 328.39 97.99 328.39 97.496C328.39 97.34 298.443 0.871 298.443 0.871" fill="white"/>
</svg>
